<svg id="Layer_1" data-name="Layer 1" xmlns="http://www.w3.org/2000/svg" viewBox="0 0 780.142 800"><defs><style>.cls-1{fill:#fafbfc;}</style></defs><path class="cls-1" d="M604.7,8.448a33.8,33.8,0,1,0,47.711,3A33.8,33.8,0,0,0,604.7,8.448ZM430.582,296.4a6.1,6.1,0,0,0,1.736,10.219L565.174,360.56l36.035,14.632a6.1,6.1,0,0,0,8.188-7.2l-9.937-37.658L562.852,191.542a6.093,6.093,0,0,0-9.924-3.013ZM711.076,57.19,767.3,120.965a91.1,91.1,0,1,1-136.659,120.49L574.416,177.68a6.073,6.073,0,0,1,.539-8.572L702.5,56.651A6.074,6.074,0,0,1,711.076,57.19ZM495.7,360.429a91.1,91.1,0,1,1-128.575-8.086A91.1,91.1,0,0,1,495.7,360.429Zm-360.388,196.3L11.986,665.465a6.071,6.071,0,0,0-.539,8.571h0l22.086,25.05a6.071,6.071,0,0,0,8.571.539h0l57.6-50.786a6.073,6.073,0,0,1,10.051,3.842l16.8,141.96a6.073,6.073,0,0,0,10.041,3.846L260.024,689.668a6.073,6.073,0,0,0,.539-8.572h0l-22.089-25.054a6.073,6.073,0,0,0-8.572-.539h0l-58.724,51.775a6.073,6.073,0,0,1-10.055-3.887L145.37,560.616a6.073,6.073,0,0,0-10.054-3.889ZM348.73,490.012a91.1,91.1,0,1,1-128.575-8.085A91.095,91.095,0,0,1,348.73,490.012Zm235.784-418.7a33.8,33.8,0,1,1-47.71-3A33.8,33.8,0,0,1,584.514,71.314Z" transform="translate(-9.929 0)"/></svg>