<svg id="Layer_1" data-name="Layer 1" xmlns="http://www.w3.org/2000/svg" viewBox="0 0 400 400"><defs><style>.cls-1{fill:#3b0078;}.cls-2{fill:#6ae7b2;fill-rule:evenodd;}</style></defs><circle class="cls-1" cx="200" cy="200" r="200"/><path class="cls-2" d="M296.3,154.66a6.881,6.881,0,0,1,6.878,6.881h0v96.3a103.178,103.178,0,1,1-206.356,0h0v-96.3a6.879,6.879,0,0,1,6.878-6.881H296.3ZM148.41,38.982a37.832,37.832,0,1,1-37.831,37.831A37.831,37.831,0,0,1,148.41,38.982Zm103.18,0a37.832,37.832,0,1,1-37.835,37.831A37.832,37.832,0,0,1,251.59,38.982Z" transform="translate(0 0)"/></svg>